<svg width="132" height="50" viewBox="0 0 132 50" fill="none" xmlns="http://www.w3.org/2000/svg">
<path d="M11.8724 11.163L17.1902 15.2077C22.5079 10.5475 28.0029 6.9424 31.0163 5.0959C33.427 3.6187 34.916 4.12868 35.3591 4.56833C35.6841 4.97866 36.21 6.09829 35.7136 7.29412C23.6601 12.4819 19.2287 18.4611 17.1902 20.9231C16.1266 19.0942 13.8518 17.699 12.8474 17.2301V34.2003H31.6367C31.8435 30.5366 32.133 23.2092 31.6367 23.2092C30.0768 23.2092 25.9054 28.8367 24.0146 31.6504L21.7989 27.8694L26.319 22.5058C27.2939 21.6265 29.7223 19.5866 31.6367 18.4611C34.9692 15.9287 35.7432 18.3438 35.7136 19.8679V37.6295H8.85906V14.1526C8.85906 10.354 10.868 10.5768 11.8724 11.163Z" fill="#0A4F9F"/>
<path d="M21.0899 25.5833L18.7855 22.6816C22.8624 16.3508 31.4595 11.2509 33.4093 10.2837C34.4728 9.43958 35.0932 9.93198 35.2705 10.2837L35.7137 11.0751C35.95 11.6906 36.2809 12.9919 35.7137 13.2733C28.0561 17.3532 22.7738 23.1799 21.0899 25.5833Z" fill="#08A369"/>
<path d="M74.4161 37.3652L77.9597 24.1816H83.7181L80.0268 37.3652H74.4161Z" fill="#0A4F9F"/>
<path d="M81.9463 37.3652L85.7852 24.1816H91.8389L94.6443 32.0918L96.7114 24.1816H102.322L98.7785 37.3652H92.7248L90.0671 29.3086L87.557 37.3652H81.9463Z" fill="#0A4F9F"/>
<path d="M109.114 24.1816L98.9262 37.3652H102.765L109.409 28.7227L110.295 37.3652H116.792L114.134 24.1816H109.114Z" fill="#0A4F9F"/>
<path d="M48.8725 24.4746L38.9799 36.9258L38.6846 37.3652H42.5235L49.0201 28.8691L50.2013 37.3652H56.255L53.8926 24.4746H48.8725Z" fill="#0A4F9F"/>
<path d="M56.698 37.3652L60.2416 24.4746H72.6443C74.4161 24.4746 75.2528 25.6465 75.4497 26.2324C75.5973 26.8672 75.804 28.5762 75.4497 30.334C73.796 35.7246 69.2483 37.2676 67.1812 37.3652H56.698Z" fill="#0A4F9F"/>
<path d="M63.1946 35.168L65.557 27.1113H68.6577C69.396 27.209 70.6658 27.9902 69.8389 30.334C68.5396 34.4355 64.868 35.2656 63.1946 35.168Z" fill="white"/>
</svg>
