<svg width="86" height="30" viewBox="0 0 86 30" fill="none" xmlns="http://www.w3.org/2000/svg">
<path d="M7.73508 6.13315L11.1997 8.7757C14.6643 5.73102 18.2443 3.3757 20.2076 2.16932C21.7782 1.20422 22.7483 1.53741 23.037 1.82464C23.2487 2.09273 23.5913 2.82421 23.268 3.60549C15.4149 6.99485 12.5278 10.9012 11.1997 12.5097C10.5068 11.3148 9.02468 10.4034 8.37025 10.097V21.1842H20.6118C20.7465 18.7906 20.9352 14.0034 20.6118 14.0034C19.5955 14.0034 16.8777 17.6799 15.6459 19.5182L14.2023 17.048L17.1472 13.5438C17.7824 12.9693 19.3645 11.6366 20.6118 10.9012C22.7829 9.24676 23.2872 10.8246 23.268 11.8204V23.4246H5.77181V8.08634C5.77181 5.60464 7.08066 5.75017 7.73508 6.13315Z" fill="#0A4F9F"/>
<path d="M13.7404 15.5544L12.239 13.6587C14.8952 9.52251 20.4963 6.19059 21.7667 5.55868C22.4596 5.00719 22.8638 5.32889 22.9793 5.55868L23.268 6.0757C23.422 6.47783 23.6375 7.32804 23.268 7.51187C18.279 10.1774 14.8375 13.9842 13.7404 15.5544Z" fill="#08A369"/>
<path d="M48.4832 23.252L50.7919 14.6387H54.5436L52.1387 23.252H48.4832Z" fill="#0A4F9F"/>
<path d="M53.3893 23.252L55.8904 14.6387H59.8345L61.6622 19.8066L63.0089 14.6387H66.6644L64.3557 23.252H60.4116L58.6801 17.9883L57.0447 23.252H53.3893Z" fill="#0A4F9F"/>
<path d="M71.0895 14.6387L64.4519 23.252H66.953L71.2819 17.6055L71.8591 23.252H76.0917L74.3602 14.6387H71.0895Z" fill="#0A4F9F"/>
<path d="M31.8412 14.8301L25.396 22.9648L25.2036 23.252H27.7047L31.9374 17.7012L32.7069 23.252H36.651L35.1119 14.8301H31.8412Z" fill="#0A4F9F"/>
<path d="M36.9396 23.252L39.2483 14.8301H47.3289C48.4832 14.8301 49.0283 15.5957 49.1566 15.9785C49.2528 16.3932 49.3875 17.5098 49.1566 18.6582C48.0792 22.1801 45.1163 23.1882 43.7696 23.252H36.9396Z" fill="#0A4F9F"/>
<path d="M41.1723 21.8164L42.7114 16.5527H44.7315C45.2125 16.6165 46.0398 17.127 45.5011 18.6582C44.6546 21.3379 42.2625 21.8802 41.1723 21.8164Z" fill="white"/>
</svg>
