<svg width="24" height="30" viewBox="0 0 24 30" fill="none" xmlns="http://www.w3.org/2000/svg">
<path d="M2.66202 6.31011L7.35971 9.93049C12.0574 5.75918 16.9117 2.53231 19.5737 0.87953C21.7033 -0.442696 23.0187 0.0137867 23.4101 0.407307C23.6972 0.774592 24.1618 1.77676 23.7233 2.84713C13.0752 7.49066 9.16049 12.8425 7.35971 15.0462C6.42017 13.4092 4.41061 12.1604 3.52327 11.7407V26.9305H20.1218C20.3045 23.6512 20.5602 17.0925 20.1218 17.0925C18.7438 17.0925 15.0587 22.1296 13.3884 24.6481L11.431 21.2639L15.4241 16.4629C16.2853 15.6759 18.4306 13.8499 20.1218 12.8425C23.0656 10.5759 23.7494 12.7376 23.7233 14.1018V30H0V8.98604C0 5.58603 1.77468 5.78541 2.66202 6.31011Z" fill="#0A4F9F"/>
<path d="M10.8047 19.2176L8.76902 16.6203C12.3706 10.9536 19.9652 6.38881 21.6877 5.52306C22.6272 4.76751 23.1753 5.20825 23.3319 5.52306L23.7233 6.2314C23.9321 6.78233 24.2244 7.94715 23.7233 8.199C16.9587 11.8509 12.2923 17.0663 10.8047 19.2176Z" fill="#08A369"/>
</svg>
